{
  "source": "C:\\Users\\Peter\\Desktop\\stuff\\MIUN\\quantitative_research\\video_compression\\videos\\HEVC_CLASS_B\\ParkScene_1920x1080_24.y4m",
  "output": "C:\\Users\\Peter\\Desktop\\stuff\\MIUN\\quantitative_research\\video_compression\\compressed_videos\\HEVC_CLASS_B\\h264\\4\\ParkScene_1920x1080_24_h264.mp4",
  "codec": "h264",
  "ok": "Input #0, yuv4mpegpipe, from 'C:\\Users\\Peter\\Desktop\\stuff\\MIUN\\quantitative_research\\video_compression\\videos\\HEVC_CLASS_B\\ParkScene_1920x1080_24.y4m':\n  Duration: 00:00:10.00, start: 0.000000, bitrate: 597198 kb/s\n  Stream #0:0: Video: rawvideo (I420 / 0x30323449), yuv420p(progressive), 1920x1080, 24 fps, 24 tbr, 24 tbn\n[out#0/mp4 @ 00000191cea6a640] Codec AVOption b:a (set bitrate (in bits/s)) has not been used for any stream. The most likely reason is either wrong type (e.g. a video option with no video streams) or that it is a private option of some decoder which was not actually used for any stream.\nStream mapping:\n  Stream #0:0 -> #0:0 (rawvideo (native) -> h264 (libx264))\nPress [q] to stop, [?] for help\n[libx264 @ 00000191cea6cac0] using cpu capabilities: MMX2 SSE2Fast SSSE3 SSE4.2 AVX FMA3 BMI2 AVX2\n[libx264 @ 00000191cea6cac0] profile High, level 5.0, 4:2:0, 8-bit\n[libx264 @ 00000191cea6cac0] 264 - core 165 r3222 b35605a - H.264/MPEG-4 AVC codec - Copyleft 2003-2025 - http://www.videolan.org/x264.html - options: cabac=1 ref=5 deblock=1:0:0 analyse=0x3:0x113 me=hex subme=8 psy=1 psy_rd=1.00:0.00 mixed_ref=1 me_range=16 chroma_me=1 trellis=2 8x8dct=1 cqm=0 deadzone=21,11 fast_pskip=1 chroma_qp_offset=-2 threads=18 lookahead_threads=3 sliced_threads=0 nr=0 decimate=1 interlaced=0 bluray_compat=0 constrained_intra=0 bframes=3 b_pyramid=2 b_adapt=1 b_bias=0 direct=3 weightb=1 open_gop=0 weightp=2 keyint=250 keyint_min=24 scenecut=40 intra_refresh=0 rc_lookahead=50 rc=cbr mbtree=1 bitrate=4000 ratetol=1.0 qcomp=0.60 qpmin=0 qpmax=69 qpstep=4 vbv_maxrate=4000 vbv_bufsize=4000 nal_hrd=none filler=0 ip_ratio=1.40 aq=1:1.00\nOutput #0, mp4, to 'C:\\Users\\Peter\\Desktop\\stuff\\MIUN\\quantitative_research\\video_compression\\compressed_videos\\HEVC_CLASS_B\\h264\\4\\ParkScene_1920x1080_24_h264.mp4':\n  Metadata:\n    encoder         : Lavf62.3.100\n  Stream #0:0: Video: h264 (avc1 / 0x31637661), yuv420p(tv, progressive), 1920x1080, q=2-31, 4000 kb/s, 24 fps, 12288 tbn\n    Metadata:\n      encoder         : Lavc62.11.100 libx264\n    Side data:\n      cpb: bitrate max/min/avg: 4000000/0/4000000 buffer size: 4000000 vbv_delay: N/A\nframe=    0 fps=0.0 q=0.0 size=       0KiB time=N/A bitrate=N/A speed=N/A elapsed=0:00:00.51    \nframe=    0 fps=0.0 q=0.0 size=       0KiB time=N/A bitrate=N/A speed=N/A elapsed=0:00:01.04    \nframe=   19 fps= 12 q=31.0 size=     256KiB time=00:00:00.54 bitrate=3872.4kbits/s speed=0.346x elapsed=0:00:01.56    \nframe=   33 fps= 15 q=32.0 size=     256KiB time=00:00:01.29 bitrate=1623.9kbits/s speed=0.605x elapsed=0:00:02.13    \nframe=   49 fps= 18 q=32.0 size=     512KiB time=00:00:01.95 bitrate=2142.0kbits/s speed=0.735x elapsed=0:00:02.66    \nframe=   69 fps= 22 q=32.0 size=    1024KiB time=00:00:02.79 bitrate=3005.0kbits/s speed=0.87x elapsed=0:00:03.20    \nframe=   84 fps= 22 q=32.0 size=    1280KiB time=00:00:03.29 bitrate=3185.7kbits/s speed=0.882x elapsed=0:00:03.73    \nframe=  101 fps= 24 q=32.0 size=    1536KiB time=00:00:03.95 bitrate=3178.9kbits/s speed=0.927x elapsed=0:00:04.26    \nframe=  117 fps= 24 q=32.0 size=    1792KiB time=00:00:04.79 bitrate=3063.7kbits/s speed=0.983x elapsed=0:00:04.87    \nframe=  137 fps= 25 q=31.0 size=    2048KiB time=00:00:05.62 bitrate=2982.7kbits/s speed=1.04x elapsed=0:00:05.42    \nframe=  153 fps= 26 q=31.0 size=    2304KiB time=00:00:06.29 bitrate=3000.0kbits/s speed=1.05x elapsed=0:00:05.97    \nframe=  173 fps= 26 q=31.0 size=    2560KiB time=00:00:07.04 bitrate=2978.3kbits/s speed=1.08x elapsed=0:00:06.54    \nframe=  189 fps= 27 q=31.0 size=    2816KiB time=00:00:07.62 bitrate=3025.4kbits/s speed=1.07x elapsed=0:00:07.10    \nframe=  205 fps= 27 q=31.0 size=    3072KiB time=00:00:08.33 bitrate=3019.9kbits/s speed=1.08x elapsed=0:00:07.70    \nframe=  225 fps= 27 q=-1.0 size=    3328KiB time=00:00:09.12 bitrate=2987.8kbits/s speed= 1.1x elapsed=0:00:08.27    \n[mp4 @ 00000191cea6b740] Starting second pass: moving the moov atom to the beginning of the file\n[out#0/mp4 @ 00000191cea6a640] video:3729KiB audio:0KiB subtitle:0KiB other streams:0KiB global headers:0KiB muxing overhead: 0.098987%\nframe=  240 fps= 28 q=-1.0 Lsize=    3733KiB time=00:00:09.91 bitrate=3083.7kbits/s speed=1.14x elapsed=0:00:08.69    \n[libx264 @ 00000191cea6cac0] frame I:1     Avg QP:28.28  size:154025\n[libx264 @ 00000191cea6cac0] frame P:60    Avg QP:29.18  size: 42154\n[libx264 @ 00000191cea6cac0] frame B:179   Avg QP:35.02  size:  6339\n[libx264 @ 00000191cea6cac0] consecutive B-frames:  0.4%  0.0%  1.2% 98.3%\n[libx264 @ 00000191cea6cac0] mb I  I16..4: 17.4% 69.0% 13.6%\n[libx264 @ 00000191cea6cac0] mb P  I16..4:  0.1%  1.4%  0.3%  P16..4: 40.1% 18.2% 10.1%  0.0%  0.0%    skip:29.6%\n[libx264 @ 00000191cea6cac0] mb B  I16..4:  0.0%  0.1%  0.0%  B16..8: 47.0%  2.5%  0.5%  direct: 0.9%  skip:49.0%  L0:41.0% L1:56.7% BI: 2.3%\n[libx264 @ 00000191cea6cac0] 8x8 transform intra:73.5% inter:54.5%\n[libx264 @ 00000191cea6cac0] direct mvs  spatial:94.4% temporal:5.6%\n[libx264 @ 00000191cea6cac0] coded y,uvDC,uvAC intra: 75.1% 64.1% 37.1% inter: 8.5% 6.6% 1.1%\n[libx264 @ 00000191cea6cac0] i16 v,h,dc,p: 25% 19%  4% 52%\n[libx264 @ 00000191cea6cac0] i8 v,h,dc,ddl,ddr,vr,hd,vl,hu: 12%  7%  3% 11% 15% 15% 13% 12% 11%\n[libx264 @ 00000191cea6cac0] i4 v,h,dc,ddl,ddr,vr,hd,vl,hu: 11%  7%  3% 10% 15% 14% 15% 11% 14%\n[libx264 @ 00000191cea6cac0] i8c dc,h,v,p: 44% 22% 20% 13%\n[libx264 @ 00000191cea6cac0] Weighted P-Frames: Y:0.0% UV:0.0%\n[libx264 @ 00000191cea6cac0] ref P L0: 65.4% 16.7% 11.4%  3.6%  2.8%\n[libx264 @ 00000191cea6cac0] ref B L0: 92.8%  5.4%  1.6%  0.3%\n[libx264 @ 00000191cea6cac0] ref B L1: 97.3%  2.7%\n[libx264 @ 00000191cea6cac0] kb/s:3054.34\n",
  "seconds": 8.904100894927979,
  "probe_out": {}
}